<?xml version="1.0" encoding="utf-8"?>
<!-- Designed by Vexels.com - 2016 All Rights Reserved - https://vexels.com/terms-and-conditions/  -->

<svg version="1.1" id="Layer_1" xmlns="http://www.w3.org/2000/svg" xmlns:xlink="http://www.w3.org/1999/xlink" x="0px" y="0px"
	 width="1200px" height="1200px" viewBox="0 0 1200 1200" enable-background="new 0 0 1200 1200" xml:space="preserve">
<g>
	<g>
		<g>
			<path d="M983.972,142.124h-45.185v12.912c0,36.017-27.954,65.185-62.28,65.185c-34.364,0-62.17-29.168-62.17-65.185v-12.912
				h-49.34v12.912c0,36.017-27.788,65.185-62.161,65.185c-34.309,0-62.29-29.168-62.29-65.185v-12.912h-49.157v12.912
				c0,36.017-27.717,65.185-62.015,65.185c-34.465,0-62.363-29.168-62.363-65.185v-12.912h-49.239v12.912
				c0,36.017-27.872,65.185-62.097,65.185c-34.474,0-62.262-29.168-62.262-65.185v-12.912h-77.311
				c-64.052,0-115.913,76.691-115.913,171.279v665.464c0,94.534,51.861,171.133,115.913,171.133h767.87
				c63.969,0,115.838-76.599,115.838-171.133V313.403C1099.811,218.814,1047.942,142.124,983.972,142.124z M978.375,885.193
				c0,66.06-15.927,116.614-86.964,119.427h-575.56c-74.947,2.686-86.9-53.367-86.9-119.427V420.795
				c0-66.116,13.808-123.865,86.9-119.592h575.56c74.607-4.273,86.964,53.475,86.964,119.592V885.193z"/>
			<path d="M877.731,191.546c20.181,0,36.51-17.187,36.51-38.39V88.263c0-21.094-16.329-38.263-36.51-38.263
				c-20.217,0-36.664,17.169-36.664,38.263v64.893C841.067,174.359,857.513,191.546,877.731,191.546z"/>
			<path d="M703.721,191.546c20.228,0,36.4-17.187,36.4-38.39V88.263c0-21.094-16.172-38.263-36.4-38.263
				c-20.245,0-36.582,17.169-36.582,38.263v64.893C667.139,174.359,683.476,191.546,703.721,191.546z"/>
			<path d="M532.552,191.546c20.135,0,36.473-17.187,36.473-38.39V88.263c0-21.094-16.338-38.263-36.473-38.263
				c-20.255,0-36.666,17.169-36.666,38.263v64.893C495.886,174.359,512.298,191.546,532.552,191.546z"/>
			<path d="M352.844,194.505c20.144,0,36.473-17.169,36.473-38.39V91.313c0-21.167-16.329-38.317-36.473-38.317
				c-20.182,0-36.511,17.15-36.511,38.317v64.801C316.333,177.336,332.662,194.505,352.844,194.505z"/>
		</g>
		<g>
			<path d="M545.829,765.91c28.128,0,42.181,21.407,42.181,42.172c0,20.84-14.053,42.19-42.181,42.19H361.903
				c-30.382,0-51.751-16.292-51.751-39.926c0-33.752,51.194-74.809,69.193-95.045c23.049-26.466,101.802-108.58,101.802-149.07
				c0-26.976-12.948-37.715-34.865-37.715c-60.189,0-29.824,84.963-87.201,84.963c-29.232,0-43.294-23.067-43.294-43.87
				c0-68.598,56.81-128.832,136.111-128.832c69.75,0,127.117,47.814,127.117,121.509c0,80.435-81.001,144.559-128.816,203.625
				H545.829z"/>
			<path d="M729.528,583.673c12.392-3.38,28.693-5.626,42.2-5.626c77.603,0,118.103,61.293,118.103,133.291
				c0,82.698-63.549,147.956-148.494,147.956c-58.501,0-130.497-31.506-130.497-74.809c0-26.995,17.442-45.568,38.83-45.568
				c31.506,0,47.805,32.619,88.864,32.619c32.08,0,53.44-23.049,53.44-65.787c0-27.03-15.744-53.44-44.994-53.44
				c-36.565,0-38.82,20.236-68.635,20.236c-21.927,0-36.555-12.383-36.555-33.204c0-11.797,0.557-22.501,2.822-42.189
				l14.053-109.676c4.494-34.3,24.758-37.678,48.373-37.678h137.252c28.126,0,42.181,21.369,42.181,42.189
				c0,20.821-14.055,42.172-42.181,42.172H735.72L729.528,583.673z"/>
		</g>
	</g>
</g>
</svg>
